


<svg version="1.1" xmlns="http://www.w3.org/2000/svg" xmlns:xlink="http://www.w3.org/1999/xlink" x="0px" y="0px"
	 viewBox="0 0 1200 800" style="enable-background:new 0 0 1200 800;" xml:space="preserve">
<style type="text/css">
	.st0{display:none;}
	.st1{display:inline;fill:#E7F1F7;stroke:#F3EED6;stroke-miterlimit:10;}
	.st2{opacity:0.15;}
	.st3{clip-path:url(#SVGID_2_);}
	.st4{fill:none;stroke:#415B75;stroke-width:0.5;stroke-miterlimit:10;}
	.st5{fill:none;}
</style>
<g id="background" class="st0">
	<rect class="st1" width="1200" height="800"/>
</g>
<g id="pattern">
	<g class="st2">
		<g>
			<defs>
				<rect id="SVGID_1_" width="1200" height="800"/>
			</defs>
			<clipPath id="SVGID_2_">
				<use xlink:href="#SVGID_1_"  style="overflow:visible;"/>
			</clipPath>
			<g class="st3">
				<g>
					<polygon class="st4" points="1086.2,788.4 992.1,813.7 1018.5,936.8 1172.4,846.5 					"/>
					<line class="st4" x1="954.9" y1="853" x2="867.5" y2="796"/>
					<line class="st4" x1="867.5" y1="796" x2="725.9" y2="833.4"/>
					<line class="st4" x1="451" y1="830" x2="583.5" y2="762"/>
					<line class="st4" x1="583.5" y1="762" x2="628.5" y2="823.3"/>
					<line class="st4" x1="660.9" y1="788.4" x2="664.5" y2="820"/>
					<line class="st4" x1="725.9" y1="833.4" x2="793.3" y2="788.8"/>
					<line class="st4" x1="664.5" y1="820" x2="793.3" y2="788.8"/>
					<line class="st4" x1="793.3" y1="788.8" x2="660.9" y2="788.4"/>
					<line class="st4" x1="320.1" y1="869.1" x2="272.1" y2="732.7"/>
					<line class="st4" x1="76.7" y1="746" x2="48.8" y2="852.2"/>
					<line class="st4" x1="629.5" y1="716.5" x2="660.9" y2="788.4"/>
					<line class="st4" x1="583.5" y1="762" x2="660.9" y2="788.4"/>
				</g>
				<g>
					<polygon class="st4" points="1155.8,195.7 1257.3,178.7 1335.9,247.7 1184.3,333 					"/>
					<polygon class="st4" points="1345.1,489.2 1276.1,489.2 1198.4,622 1401.9,588 					"/>
					<line class="st4" x1="1198.4" y1="622" x2="1276.1" y2="652.9"/>
					<line class="st4" x1="1276.8" y1="746.5" x2="1198.4" y2="622"/>
					<line class="st4" x1="1184.3" y1="333" x2="1321.1" y2="384.9"/>
					<line class="st4" x1="1276.1" y1="489.2" x2="1184.3" y2="333"/>
					<line class="st4" x1="1222.1" y1="71.7" x2="1155.8" y2="195.7"/>
					<line class="st4" x1="1155" y1="453.3" x2="1208.6" y2="491.2"/>
					<line class="st4" x1="1171" y1="46.2" x2="1222.1" y2="71.7"/>
					<line class="st5" x1="1184.3" y1="333" x2="1322.1" y2="382.9"/>
				</g>
				<g>
					<polygon class="st4" points="182,253.4 121.1,384.9 126.7,420.5 239.5,392 					"/>
					<polygon class="st4" points="-44.2,195.7 57.3,178.7 135.9,247.7 -15.7,333 					"/>
					<polygon class="st4" points="272.1,221.1 328.2,221.1 372.2,281.5 259.7,353.3 					"/>
					<polygon class="st4" points="559.6,292.2 492.6,292.2 452.3,384.9 559.1,440.9 					"/>
					<polygon class="st4" points="580.3,531.9 581,631.6 455.2,617.9 552.3,486.9 					"/>
					<polygon class="st4" points="275.9,136.3 177,229.9 151.9,186.4 151.9,51.6 					"/>
					<polygon class="st4" points="220.5,705.1 164,811.5 76.8,746.5 76.1,652.9 					"/>
					<polygon class="st4" points="394.6,262.9 440.9,286.6 545.4,232.8 435.5,196.6 					"/>
					<polygon class="st4" points="326.4,432 406.7,359.7 435.4,439 313.7,522.8 					"/>
					<polygon class="st4" points="145.1,489.2 76.1,489.2 -1.6,622 201.9,588 					"/>
					<polygon class="st4" points="377.7,48.7 320.1,69.1 351.7,176.9 481.6,80.5 					"/>
					<polygon class="st4" points="48.8,52.2 22.1,71.7 57.6,94.7 83.8,76.1 					"/>
					<line class="st4" x1="239.5" y1="392" x2="326.4" y2="432"/>
					<line class="st4" x1="406.7" y1="359.7" x2="239.5" y2="392"/>
					<line class="st4" x1="313.7" y1="522.8" x2="239.5" y2="392"/>
					<line class="st4" x1="126.7" y1="420.5" x2="205" y2="486.1"/>
					<line class="st4" x1="198.7" y1="428.8" x2="205" y2="486.1"/>
					<line class="st4" x1="259.7" y1="566" x2="205" y2="486.1"/>
					<line class="st4" x1="145.1" y1="489.2" x2="205" y2="486.1"/>
					<line class="st4" x1="201.9" y1="588" x2="205" y2="486.1"/>
					<line class="st4" x1="259.7" y1="566" x2="201.9" y2="588"/>
					<line class="st4" x1="76.1" y1="489.2" x2="126.7" y2="420.5"/>
					<line class="st4" x1="145.1" y1="489.2" x2="126.7" y2="420.5"/>
					<line class="st4" x1="239.5" y1="392" x2="259.7" y2="353.3"/>
					<line class="st4" x1="182" y1="253.4" x2="259.7" y2="353.3"/>
					<line class="st4" x1="272.1" y1="221.1" x2="182" y2="253.4"/>
					<line class="st4" x1="372.2" y1="281.5" x2="239.5" y2="392"/>
					<line class="st4" x1="406.7" y1="359.7" x2="372.2" y2="281.5"/>
					<line class="st4" x1="435.4" y1="439" x2="455.2" y2="617.9"/>
					<line class="st4" x1="552.3" y1="486.9" x2="435.4" y2="439"/>
					<line class="st4" x1="313.7" y1="522.8" x2="455.2" y2="617.9"/>
					<line class="st4" x1="406.7" y1="359.7" x2="409.6" y2="299.8"/>
					<line class="st4" x1="492.6" y1="292.2" x2="409.6" y2="299.8"/>
					<line class="st4" x1="369" y1="283.7" x2="394.6" y2="262.9"/>
					<line class="st4" x1="440.9" y1="286.6" x2="409.6" y2="299.8"/>
					<line class="st4" x1="372.2" y1="281.5" x2="409.6" y2="299.8"/>
					<line class="st4" x1="440.9" y1="286.6" x2="492.6" y2="292.2"/>
					<line class="st4" x1="545.4" y1="232.8" x2="492.6" y2="292.2"/>
					<line class="st4" x1="559.6" y1="292.2" x2="545.4" y2="232.8"/>
					<line class="st4" x1="409.6" y1="299.8" x2="452.3" y2="384.9"/>
					<line class="st4" x1="406.7" y1="359.7" x2="452.3" y2="384.9"/>
					<line class="st4" x1="435.4" y1="439" x2="452.3" y2="384.9"/>
					<line class="st4" x1="552.3" y1="486.9" x2="452.3" y2="384.9"/>
					<line class="st4" x1="559.1" y1="440.9" x2="552.3" y2="486.9"/>
					<line class="st4" x1="590.8" y1="317.5" x2="559.1" y2="440.9"/>
					<line class="st4" x1="559.6" y1="292.2" x2="590.8" y2="317.5"/>
					<line class="st4" x1="409.6" y1="299.8" x2="394.6" y2="262.9"/>
					<line class="st4" x1="351.7" y1="176.9" x2="394.6" y2="262.9"/>
					<line class="st4" x1="328.2" y1="221.1" x2="351.7" y2="176.9"/>
					<line class="st4" x1="394.6" y1="262.9" x2="328.2" y2="221.1"/>
					<line class="st4" x1="435.5" y1="196.6" x2="351.7" y2="176.9"/>
					<line class="st4" x1="481.6" y1="80.5" x2="435.5" y2="196.6"/>
					<line class="st4" x1="545.4" y1="232.8" x2="481.6" y2="80.5"/>
					<line class="st4" x1="272.1" y1="221.1" x2="320.1" y2="69.1"/>
					<line class="st4" x1="351.7" y1="176.9" x2="272.1" y2="221.1"/>
					<polygon class="st4" points="956.5,236 1058.3,147.8 1155.8,195.8 1037,329.9 					"/>
					<polygon class="st4" points="702.9,614.7 649.4,644.4 629.7,717.9 813.7,672 					"/>
					<polygon class="st4" points="1086.2,-11.6 992.1,13.7 1018.5,136.8 1172.4,46.5 					"/>
					<polygon class="st4" points="898.3,244.7 851.4,278.6 851.1,353.8 970.3,296.1 					"/>
					<polygon class="st4" points="706.7,545.5 815.3,422.4 896.5,475 825.1,646.4 					"/>
					<polygon class="st4" points="958.8,667.4 998.5,708.1 1010.9,641.2 907,635.2 					"/>
					<polygon class="st4" points="796.5,136.3 956.9,165 954.9,53 729.2,128.5 					"/>
					<polygon class="st4" points="756.3,356.5 794.3,388.1 714.3,405.3 714.3,380.4 					"/>
					<polygon class="st4" points="580.3,193.4 577.2,145.1 637.5,126 614.3,156.6 					"/>
					<polygon class="st4" points="1022,394.4 896.5,425.7 998,578.2 1125.9,478.2 					"/>
					<polygon class="st4" points="583.1,762.4 587.6,680.2 507.4,655.8 407.8,801.4 					"/>
					<polygon class="st4" points="615.2,199 725.9,178.3 766.5,244.7 636.7,293.7 					"/>
					<polygon class="st4" points="279.6,622.6 383.8,617.9 439.9,677.1 273.4,733.3 					"/>
					<polygon class="st4" points="1198.3,622 1083.7,688.7 1031.5,683.9 1165.5,521.5 					"/>
					<line class="st4" x1="1037" y1="329.9" x2="1022" y2="394.4"/>
					<line class="st4" x1="896.5" y1="425.7" x2="1037" y2="329.9"/>
					<line class="st4" x1="1125.9" y1="478.2" x2="1037" y2="329.9"/>
					<line class="st4" x1="1155.8" y1="195.8" x2="1096.5" y2="360.1"/>
					<line class="st4" x1="1037" y1="329.9" x2="1096.5" y2="360.1"/>
					<line class="st4" x1="1125.9" y1="478.2" x2="1096.5" y2="360.1"/>
					<line class="st4" x1="1154.6" y1="452.6" x2="1096.5" y2="360.1"/>
					<line class="st4" x1="1125.9" y1="478.2" x2="1154.6" y2="452.6"/>
					<line class="st4" x1="1037" y1="329.9" x2="970.3" y2="296.1"/>
					<line class="st4" x1="956.5" y1="236" x2="970.3" y2="296.1"/>
					<line class="st4" x1="898.3" y1="244.7" x2="956.5" y2="236"/>
					<line class="st4" x1="851.1" y1="353.8" x2="1037" y2="329.9"/>
					<line class="st4" x1="896.5" y1="425.7" x2="851.1" y2="353.8"/>
					<line class="st4" x1="998" y1="578.2" x2="1010.9" y2="641.2"/>
					<line class="st4" x1="907" y1="635.2" x2="998" y2="578.2"/>
					<line class="st4" x1="1125.9" y1="478.2" x2="1010.9" y2="641.2"/>
					<line class="st4" x1="896.5" y1="425.7" x2="836.3" y2="396.1"/>
					<line class="st4" x1="815.3" y1="422.4" x2="836.3" y2="396.1"/>
					<line class="st4" x1="851.1" y1="353.8" x2="756.3" y2="356.5"/>
					<line class="st4" x1="794.3" y1="388.1" x2="836.3" y2="396.1"/>
					<line class="st4" x1="851.1" y1="353.8" x2="836.3" y2="396.1"/>
					<line class="st4" x1="794.3" y1="388.1" x2="815.3" y2="422.4"/>
					<line class="st4" x1="714.3" y1="405.3" x2="815.3" y2="422.4"/>
					<line class="st4" x1="706.7" y1="545.5" x2="714.3" y2="405.3"/>
					<line class="st4" x1="836.3" y1="396.1" x2="896.5" y2="475"/>
					<line class="st4" x1="896.5" y1="425.7" x2="896.5" y2="475"/>
					<line class="st4" x1="998" y1="578.2" x2="896.5" y2="475"/>
					<line class="st4" x1="907" y1="635.2" x2="896.5" y2="475"/>
					<line class="st4" x1="825.1" y1="646.4" x2="907" y2="635.2"/>
					<line class="st4" x1="702.9" y1="614.7" x2="825.1" y2="646.4"/>
					<line class="st4" x1="706.7" y1="545.5" x2="702.9" y2="614.7"/>
					<line class="st4" x1="836.3" y1="396.1" x2="756.3" y2="356.5"/>
					<line class="st4" x1="766.5" y1="244.7" x2="756.3" y2="356.5"/>
					<line class="st4" x1="851.4" y1="278.6" x2="766.5" y2="244.7"/>
					<line class="st4" x1="756.3" y1="356.5" x2="851.4" y2="278.6"/>
					<line class="st4" x1="714.3" y1="380.4" x2="766.5" y2="244.7"/>
					<line class="st4" x1="636.7" y1="293.7" x2="714.3" y2="380.4"/>
					<line class="st4" x1="714.3" y1="405.3" x2="636.7" y2="293.7"/>
					<line class="st4" x1="898.3" y1="244.7" x2="725.9" y2="178.3"/>
					<line class="st4" x1="766.5" y1="244.7" x2="898.3" y2="244.7"/>
					<line class="st4" x1="201.9" y1="588" x2="279.6" y2="622.6"/>
					<line class="st4" x1="259.7" y1="566" x2="279.6" y2="622.6"/>
					<line class="st4" x1="383.8" y1="617.9" x2="455.2" y2="617.9"/>
					<line class="st4" x1="259.7" y1="566" x2="383.8" y2="617.9"/>
					<line class="st4" x1="259.7" y1="566" x2="313.7" y2="522.8"/>
					<line class="st4" x1="383.8" y1="617.9" x2="313.7" y2="522.8"/>
					<line class="st4" x1="201.9" y1="588" x2="220.5" y2="640"/>
					<line class="st4" x1="279.6" y1="622.6" x2="220.5" y2="640"/>
					<line class="st4" x1="76.1" y1="652.9" x2="220.5" y2="640"/>
					<line class="st4" x1="220.5" y1="705.1" x2="220.5" y2="640"/>
					<line class="st4" x1="201.9" y1="588" x2="76.1" y2="652.9"/>
					<line class="st4" x1="-1.6" y1="622" x2="76.1" y2="652.9"/>
					<line class="st4" x1="76.8" y1="746.5" x2="-1.6" y2="622"/>
					<line class="st4" x1="220.5" y1="705.1" x2="273.4" y2="733.3"/>
					<line class="st4" x1="279.6" y1="622.6" x2="220.5" y2="705.1"/>
					<line class="st4" x1="439.9" y1="677.1" x2="455.2" y2="617.9"/>
					<line class="st4" x1="507.4" y1="655.8" x2="581" y2="631.6"/>
					<line class="st4" x1="439.9" y1="677.1" x2="507.4" y2="655.8"/>
					<line class="st4" x1="455.2" y1="617.9" x2="507.4" y2="655.8"/>
					<line class="st4" x1="587.6" y1="680.2" x2="581" y2="631.6"/>
					<line class="st4" x1="649.4" y1="644.4" x2="581" y2="631.6"/>
					<line class="st4" x1="587.6" y1="680.2" x2="649.4" y2="644.4"/>
					<line class="st4" x1="580.3" y1="531.9" x2="649.4" y2="644.4"/>
					<line class="st4" x1="580.3" y1="531.9" x2="702.9" y2="614.7"/>
					<line class="st4" x1="706.7" y1="545.5" x2="580.3" y2="531.9"/>
					<line class="st4" x1="552.3" y1="486.9" x2="706.7" y2="545.5"/>
					<line class="st4" x1="714.3" y1="405.3" x2="559.1" y2="440.9"/>
					<line class="st4" x1="590.8" y1="317.5" x2="714.3" y2="405.3"/>
					<line class="st4" x1="825.1" y1="646.4" x2="813.7" y2="672"/>
					<line class="st4" x1="907" y1="635.2" x2="813.7" y2="672"/>
					<line class="st4" x1="958.8" y1="667.4" x2="813.7" y2="672"/>
					<line class="st4" x1="587.6" y1="680.2" x2="629.7" y2="717.9"/>
					<line class="st4" x1="583.1" y1="762.4" x2="629.7" y2="717.9"/>
					<line class="st4" x1="273.4" y1="733.3" x2="407.8" y2="801.4"/>
					<line class="st4" x1="439.9" y1="677.1" x2="407.8" y2="801.4"/>
					<line class="st4" x1="164" y1="811.5" x2="273.4" y2="733.3"/>
					<line class="st4" x1="121.1" y1="384.9" x2="135.9" y2="247.7"/>
					<line class="st4" x1="182" y1="253.4" x2="135.9" y2="247.7"/>
					<line class="st4" x1="177" y1="229.9" x2="182" y2="253.4"/>
					<line class="st4" x1="272.1" y1="221.1" x2="177" y2="229.9"/>
					<line class="st4" x1="275.9" y1="136.3" x2="320.1" y2="69.1"/>
					<line class="st4" x1="272.1" y1="221.1" x2="275.9" y2="136.3"/>
					<line class="st4" x1="135.9" y1="247.7" x2="177" y2="229.9"/>
					<line class="st4" x1="57.3" y1="178.7" x2="151.9" y2="186.4"/>
					<line class="st4" x1="135.9" y1="247.7" x2="151.9" y2="186.4"/>
					<line class="st4" x1="151.9" y1="51.6" x2="320.1" y2="69.1"/>
					<line class="st4" x1="636.7" y1="293.7" x2="590.8" y2="317.5"/>
					<line class="st4" x1="559.6" y1="292.2" x2="636.7" y2="293.7"/>
					<line class="st4" x1="545.4" y1="232.8" x2="615.2" y2="199"/>
					<line class="st4" x1="614.3" y1="156.6" x2="615.2" y2="199"/>
					<line class="st4" x1="580.3" y1="193.4" x2="615.2" y2="199"/>
					<line class="st4" x1="545.4" y1="232.8" x2="580.3" y2="193.4"/>
					<line class="st4" x1="481.6" y1="80.5" x2="577.2" y2="145.1"/>
					<line class="st4" x1="725.9" y1="178.3" x2="614.3" y2="156.6"/>
					<line class="st4" x1="956.9" y1="165" x2="898.3" y2="244.7"/>
					<line class="st4" x1="796.5" y1="136.3" x2="725.9" y2="178.3"/>
					<line class="st4" x1="898.3" y1="244.7" x2="796.5" y2="136.3"/>
					<line class="st4" x1="956.5" y1="236" x2="956.9" y2="165"/>
					<line class="st4" x1="1018.5" y1="136.8" x2="956.5" y2="236"/>
					<line class="st4" x1="956.9" y1="165" x2="1018.5" y2="136.8"/>
					<line class="st4" x1="992.1" y1="13.7" x2="954.9" y2="53"/>
					<line class="st4" x1="1018.5" y1="136.8" x2="954.9" y2="53"/>
					<line class="st4" x1="1165.5" y1="521.5" x2="1125.9" y2="478.2"/>
					<line class="st4" x1="1010.9" y1="641.2" x2="1165.5" y2="521.5"/>
					<line class="st4" x1="1031.5" y1="683.9" x2="1010.9" y2="641.2"/>
					<line class="st4" x1="998.5" y1="708.1" x2="1031.5" y2="683.9"/>
					<line class="st4" x1="1154.6" y1="452.6" x2="1165.5" y2="521.5"/>
					<line class="st4" x1="1058.3" y1="147.8" x2="1018.5" y2="136.8"/>
					<line class="st4" x1="1155.8" y1="195.8" x2="1172.4" y2="46.5"/>
					<line class="st4" x1="198.7" y1="428.8" x2="239.5" y2="392"/>
					<line class="st4" x1="239.5" y1="392" x2="205" y2="486.1"/>
					<line class="st4" x1="126.7" y1="420.5" x2="198.7" y2="428.8"/>
					<line class="st4" x1="-15.7" y1="333" x2="121.1" y2="384.9"/>
					<line class="st4" x1="76.1" y1="489.2" x2="-15.7" y2="333"/>
					<line class="st4" x1="637.5" y1="126" x2="729.2" y2="128.5"/>
					<line class="st4" x1="725.9" y1="178.3" x2="729.2" y2="128.5"/>
					<line class="st4" x1="954.9" y1="53" x2="867.5" y2="-4"/>
					<line class="st4" x1="729.2" y1="128.5" x2="725.9" y2="33.4"/>
					<line class="st4" x1="867.5" y1="-4" x2="725.9" y2="33.4"/>
					<line class="st4" x1="481.6" y1="80.5" x2="637.5" y2="126"/>
					<line class="st4" x1="151.9" y1="186.4" x2="83.8" y2="76.1"/>
					<line class="st4" x1="57.3" y1="178.7" x2="83.8" y2="76.1"/>
					<line class="st4" x1="57.6" y1="94.7" x2="57.3" y2="178.7"/>
					<line class="st4" x1="151.9" y1="51.6" x2="83.8" y2="76.1"/>
					<line class="st4" x1="22.1" y1="71.7" x2="-44.2" y2="195.7"/>
					<line class="st4" x1="408" y1="1.3" x2="377.7" y2="48.7"/>
					<line class="st4" x1="481.6" y1="80.5" x2="451" y2="30"/>
					<line class="st4" x1="408" y1="1.3" x2="451" y2="30"/>
					<line class="st4" x1="377.7" y1="48.7" x2="451" y2="30"/>
					<line class="st4" x1="451" y1="30" x2="583.5" y2="-38"/>
					<line class="st4" x1="583.5" y1="-38" x2="628.5" y2="23.3"/>
					<line class="st4" x1="725.9" y1="33.4" x2="664.5" y2="20"/>
					<line class="st4" x1="660.9" y1="-11.6" x2="664.5" y2="20"/>
					<line class="st4" x1="628.5" y1="23.3" x2="664.5" y2="20"/>
					<line class="st4" x1="725.9" y1="33.4" x2="793.3" y2="-11.2"/>
					<line class="st4" x1="664.5" y1="20" x2="793.3" y2="-11.2"/>
					<line class="st4" x1="793.3" y1="-11.2" x2="660.9" y2="-11.6"/>
					<line class="st4" x1="151.9" y1="51.6" x2="164" y2="11.5"/>
					<line class="st4" x1="320.1" y1="69.1" x2="272.1" y2="-67.3"/>
					<line class="st4" x1="164" y1="11.5" x2="320.1" y2="69.1"/>
					<line class="st4" x1="83.8" y1="76.1" x2="107.3" y2="40.3"/>
					<line class="st4" x1="151.9" y1="51.6" x2="107.3" y2="40.3"/>
					<line class="st4" x1="164" y1="11.5" x2="107.3" y2="40.3"/>
					<line class="st4" x1="48.8" y1="52.2" x2="107.3" y2="40.3"/>
					<line class="st4" x1="76.7" y1="-54" x2="48.8" y2="52.2"/>
					<line class="st4" x1="1096.5" y1="360.1" x2="1183.7" y2="333.1"/>
					<line class="st4" x1="1154.6" y1="452.6" x2="1183.7" y2="333.1"/>
					<line class="st4" x1="1208" y1="491.5" x2="1165.5" y2="521.5"/>
					<line class="st4" x1="1276" y1="747" x2="1083.7" y2="688.7"/>
					<line class="st4" x1="1171.5" y1="846.5" x2="1083.7" y2="688.7"/>
					<line class="st4" x1="1085.5" y1="788" x2="1083.7" y2="688.7"/>
					<line class="st4" x1="1171.5" y1="846.5" x2="1276" y2="747"/>
					<line class="st4" x1="1083.7" y1="688.7" x2="1036.7" y2="747.3"/>
					<line class="st4" x1="1085.5" y1="788" x2="1036.7" y2="747.3"/>
					<line class="st4" x1="998.5" y1="708.1" x2="1036.7" y2="747.3"/>
					<line class="st4" x1="993.3" y1="813.3" x2="1036.7" y2="747.3"/>
					<line class="st4" x1="998.5" y1="708.1" x2="993.3" y2="813.3"/>
					<line class="st4" x1="866.4" y1="796.8" x2="958.8" y2="667.4"/>
					<line class="st4" x1="993.3" y1="813.3" x2="866.4" y2="796.8"/>
					<line class="st4" x1="794.3" y1="789.3" x2="866.4" y2="796.8"/>
					<line class="st4" x1="813.7" y1="672" x2="794.3" y2="789.3"/>
					<line class="st4" x1="629.5" y1="-83.5" x2="660.9" y2="-11.6"/>
					<line class="st4" x1="583.5" y1="-38" x2="660.9" y2="-11.6"/>
					<line class="st4" x1="637.5" y1="126" x2="669.2" y2="60.9"/>
					<line class="st4" x1="628.5" y1="23.3" x2="669.2" y2="60.9"/>
					<line class="st4" x1="725.9" y1="33.4" x2="669.2" y2="60.9"/>
					<line class="st4" x1="481.6" y1="80.5" x2="622.2" y2="78.2"/>
					<line class="st4" x1="637.5" y1="126" x2="622.2" y2="78.2"/>
					<line class="st4" x1="628.5" y1="23.3" x2="622.2" y2="78.2"/>
					<line class="st4" x1="-45" y1="453.3" x2="8.6" y2="491.2"/>
					<line class="st4" x1="76.1" y1="489.2" x2="8.6" y2="491.2"/>
					<line class="st4" x1="-29" y1="46.2" x2="22.1" y2="71.7"/>
					<line class="st5" x1="-15.7" y1="333" x2="122.1" y2="382.9"/>
				</g>
				<g>
					<line class="st4" x1="8" y1="491.5" x2="-34.5" y2="521.5"/>
					<line class="st4" x1="76" y1="747" x2="-116.3" y2="688.7"/>
					<line class="st4" x1="-28.5" y1="846.5" x2="76" y2="747"/>
				</g>
				<g>
					<polygon class="st4" points="220.5,-94.9 164,11.5 76.8,-53.5 76.1,-147.1 					"/>
					<polygon class="st4" points="583.1,-37.6 587.6,-119.8 507.4,-144.2 407.8,1.4 					"/>
					<line class="st4" x1="273.4" y1="-66.7" x2="407.8" y2="1.4"/>
					<line class="st4" x1="439.9" y1="-122.9" x2="407.8" y2="1.4"/>
					<line class="st4" x1="164" y1="11.5" x2="273.4" y2="-66.7"/>
					<line class="st4" x1="1171.5" y1="46.5" x2="1083.7" y2="-111.3"/>
					<line class="st4" x1="1171.5" y1="46.5" x2="1276" y2="-53"/>
					<line class="st4" x1="993.3" y1="13.3" x2="1036.7" y2="-52.7"/>
					<line class="st4" x1="998.5" y1="-91.9" x2="993.3" y2="13.3"/>
					<line class="st4" x1="993.3" y1="13.3" x2="866.4" y2="-3.2"/>
				</g>
				<g>
					<line class="st4" x1="-28.5" y1="46.5" x2="76" y2="-53"/>
				</g>
			</g>
		</g>
	</g>
</g>
</svg>
